<svg xmlns="http://www.w3.org/2000/svg" width="67.184" height="74" viewBox="0 0 67.184 74">
  <title>DINsat</title>
  <g>
    <path d="M113.656,55.374a30.545,30.545,0,0,0-12.077-11.9,36.1,36.1,0,0,0-17.686-4.252,36.175,36.175,0,0,0-17.641,4.252,30.466,30.466,0,0,0-12.122,11.9c-.168.295-.315.6-.472.9l5.5,2.716c.13-.272.256-.547.4-.812a23.4,23.4,0,0,1,9.634-9.725,30.17,30.17,0,0,1,14.7-3.437,30.164,30.164,0,0,1,14.7,3.437,23.4,23.4,0,0,1,9.635,9.725,30.638,30.638,0,0,1,3.347,14.61v6.423a31.176,31.176,0,0,1-3.347,14.7,23.909,23.909,0,0,1-9.589,9.906,29.485,29.485,0,0,1-14.746,3.529A43.528,43.528,0,0,1,73.4,106.215a39.575,39.575,0,0,1-8.956-3.483l-2.171,5.156a38.732,38.732,0,0,0,10,4.071,48.466,48.466,0,0,0,11.625,1.267,36.065,36.065,0,0,0,17.731-4.3A30.3,30.3,0,0,0,113.7,96.9,35.99,35.99,0,0,0,118,79.12V72.969A35,35,0,0,0,113.656,55.374Z" transform="translate(-50.814 -39.226)"/>
    <path d="M79.671,96.8l-2.156,5.875-5.75-.957L73.9,95.912c-2.556-.386-11.03-2-17.119-9.393-6.645-8.07-7.813-19.825-3.119-30.245l5.5,2.716c-.811,1.4-4.81,8.651-2.263,17.2,2.4,8.044,9.656,14.068,18.567,15.455L81.1,76.286l-.67-.182q-6.6-2.09-9.224-5.253t-.863-7.971a12.69,12.69,0,0,1,6.945-7.309,23.663,23.663,0,0,1,12.069-1.782l2.009-5.473,5.75.956L95.132,54.68q6.247,1.6,9.125,5.095t1.608,8.944l-6.84-1.138q1.63-6.457-5.437-8.7l-5.366,14.62,1.613.48q6.623,2.023,9.237,5.362t.8,8.279a12.864,12.864,0,0,1-7.228,7.51A25.91,25.91,0,0,1,79.671,96.8Zm3.095-25.055L87.813,58a12.322,12.322,0,0,0-6.7,1.33,8.082,8.082,0,0,0-3.71,4.376,5,5,0,0,0,.305,4.761Q79.044,70.42,82.766,71.747ZM92.809,86.805q1.176-3.2-.343-5.228t-5.91-3.533L81.19,92.663a14.109,14.109,0,0,0,7.526-1.156A8.285,8.285,0,0,0,92.809,86.805Z" transform="translate(-50.814 -39.226)"/>
  </g>
</svg>
