<svg xmlns="http://www.w3.org/2000/svg" width="40.349mm" height="43.741mm" viewBox="0 0 114.374 123.989">
  <title>DINsat</title>
  <path d="M121.871,70.108q.14,16.819-6.96,29.837a50.763,50.763,0,0,1-20.069,20.322q-12.985,7.307-29.652,7.44a81.277,81.277,0,0,1-19.5-1.962,65.083,65.083,0,0,1-16.8-6.687l3.575-8.678a66.46,66.46,0,0,0,15.053,5.714,74.085,74.085,0,0,0,17.639,1.52c9.5-.076,17.677-1.878,24.612-5.874A40.035,40.035,0,0,0,105.7,95.014q5.534-10.725,5.41-24.671l-.088-10.762q-.114-13.947-5.806-24.436A39.162,39.162,0,0,0,88.951,18.984q-10.579-5.672-24.679-5.562T39.693,19.38A39.2,39.2,0,0,0,23.676,35.8q-5.521,10.579-5.407,24.676l.509,6.762c.679,5.445.918,6.687,2.122,9.478a22.943,22.943,0,0,0,6.186,8.6,33.376,33.376,0,0,0,12.1,5.744v-.123c.767.232,1.967.578,3.365.939a95.659,95.659,0,0,0,19.673,1.706l-.043-24.309-.753-.105q-7.554-1.446-11.437-5.416T46.111,52.363q0-7.63,4.366-12.325a18.165,18.165,0,0,1,11.706-5.516V26.067H68.44v8.354A18.126,18.126,0,0,1,79.713,39.63q4.257,4.383,5.015,12.632H77.283q-.757-9.8-8.846-11.344V63.505l1.835.308q7.548,1.344,11.487,5.57T85.7,81.245q0,7.939-4.585,12.683T68.437,99.5v9.074H62.179l.215-8.582a63.153,63.153,0,0,1-14.3-.2c-.173-.017-.349-.038-.522-.055-.476-.055-.939-.1-1.419-.164-7.47-.9-16.245-2.969-23.551-7.6a34.412,34.412,0,0,1-9.445-9.349A47.8,47.8,0,0,1,7.83,66.44L7.5,60.419q-.128-16.366,7.04-29.236A51.073,51.073,0,0,1,34.691,11.089a60.6,60.6,0,0,1,29.5-7.365q16.674-.132,29.69,6.889a51.125,51.125,0,0,1,20.4,19.766q7.383,12.752,7.512,29.42ZM62.179,41.019a9.683,9.683,0,0,0-6.366,3.558,11.691,11.691,0,0,0-2.157,7.273,10.386,10.386,0,0,0,2.1,6.859,11.555,11.555,0,0,0,6.421,3.558ZM68.437,93.1q4.85-.62,7.28-3.508a11.773,11.773,0,0,0,2.429-7.836q0-4.951-2.32-7.529t-7.389-3.714Z" transform="translate(-7.5 -3.722)" fill="#231f20"/>
</svg>
