<svg xmlns="http://www.w3.org/2000/svg" width="449.881" height="432.8" viewBox="0 0 449.881 432.8">
  <title>SmallMontserratSat</title>
  <g>
    <path d="M314.865,357.753l-7.027,28.441-36.125-8.927,6.711-27.158c-73.5-4.239-91.418-9.473-91.586-13.88-.3-7.89,55.677-28.55,115.67-28.566,9.688,0,24.6.548,25.718-3.977,5.571-22.546-98.082-28.861-81.556-95.736,7.155-28.957,34.183-48.109,77.659-43.616l6.9-27.93,36.125,8.927-6.775,27.419c18.521,6.479,35.771,15.908,48.351,27.717l-29.019,39.318c-15.467-13.335-31.05-21.81-46.678-25.671-17.677-4.368-24.583-.638-26.1,5.513-5.319,21.524,98.277,28.09,81.94,94.2C382.235,341.5,356.3,360.656,314.865,357.753Z" transform="translate(-101.774 -45.288)" fill="#231f20"/>
    <path d="M287.742,46.761C219.2,55.467,139.358,95.242,113.429,158.039c-15.416,37.335-11.1,72.869-11.1,72.871S105.841,259.8,122,286.524c27.952,46.235,103.226,75.344,192.865,71.229q-10.63-24.969-21.263-49.939c-55.823,4.216-103.658-23.164-118.634-63.943-13.8-37.576,5.331-72.829,8.774-78.881,31.938-56.139,112.576-60.477,129.252-60.834,2.061-.044,3.743-.05,4.986-.05,96.194,0,160.945,67.576,160.945,156.725,0,91.976-63.347,157.671-159.074,157.671a226.54,226.54,0,0,1-94.792-20.638l-19.7,57.715c28.161,13.593,72.722,22.509,114.5,22.509,141.242,0,231.8-94.314,231.8-217.257,0-23.431-3.907-79-42.056-129.8C434.056,30.425,296.917,45.6,287.742,46.761Z" transform="translate(-101.774 -45.288)" fill="#231f20"/>
    <path d="M748.645,378.581" transform="translate(-101.774 -45.288)" fill="#231f20"/>
  </g>
  <path d="M382.806,439.968" transform="translate(-101.774 -45.288)" fill="#231f20"/>
  <path d="M380.323,436.9" transform="translate(-101.774 -45.288)" fill="#231f20"/>
</svg>
