<svg xmlns="http://www.w3.org/2000/svg" xmlns:xlink="http://www.w3.org/1999/xlink" width="131.25" height="131.25" viewBox="0 0 131.25 131.25">
  <defs>
    <symbol id="a" data-name="Sat" viewBox="0 0 131.25 131.25">
      <path d="M59.929,104.3V70.126H37.145V58.734H25.753V47.342H37.145V35.95H59.929V24.558H71.321V35.95H94.1V47.342H71.321V58.734H94.1V70.126H105.5V81.517H94.1V92.909H71.321V104.3ZM48.537,58.734H59.929V47.342H48.537ZM71.321,81.517H82.713V70.126H71.321Z"/>
      <g>
        <rect x="112.5" y="18.75" width="18.75" height="93.75"/>
        <rect x="18.75" y="112.5" width="93.75" height="18.75"/>
        <rect x="18.75" width="93.75" height="18.75"/>
        <path d="M0,18.75H18.75q.174,31.323.349,62.647l40.83.12V92.909L0,92.752Z"/>
      </g>
    </symbol>
  </defs>
  <title>PressStart2PSat</title>
  <use width="131.25" height="131.25" xlink:href="#a"/>
</svg>
