<?xml version="1.0" encoding="utf-8"?>
<!-- Generator: Adobe Illustrator 23.0.1, SVG Export Plug-In . SVG Version: 6.00 Build 0)  -->
<svg version="1.1" id="Layer_1" xmlns="http://www.w3.org/2000/svg" xmlns:xlink="http://www.w3.org/1999/xlink" x="0px" y="0px"
	 viewBox="0 0 1280 1280" style="enable-background:new 0 0 1280 1280;" xml:space="preserve">
<style type="text/css">
	.st0{fill:none;}
	.st1{font-family:'ScriptMTBold';}
	.st2{font-size:833px;}
	.st3{display:none;fill:none;stroke:#000000;stroke-width:40;stroke-miterlimit:10;}
	.st4{fill:none;stroke:#000000;stroke-width:34.5597;stroke-miterlimit:10;}
	.st5{display:none;}
</style>
<rect x="235.02" y="107.4" class="st0" width="773.02" height="714.29"/>
<rect x="1022.32" y="164.54" class="st0" width="9.52" height="7.94"/>
<path class="st0" d="M1003.8,1264.7H490.33c-30.59,0-55.39-24.8-55.39-55.39V406.9c0-30.59,24.8-55.39,55.39-55.39h513.47
	c30.59,0,55.39,24.8,55.39,55.39v802.41C1059.19,1239.9,1034.39,1264.7,1003.8,1264.7z"/>
<text transform="matrix(1 0 0 1 434.9399 931.2705)" class="st1 st2">$</text>
<ellipse class="st3" cx="637.4" cy="630.57" rx="334.13" ry="408.73"/>
<path class="st4" d="M630.29,1085.52c-108-34.84-231.51-97.47-268.71-248.52c-33.56-136.27,57.35-319.35,78.26-350.71
	c29.39-44.08,56.5-92.85,98.76-123.54c92.15-66.92,196.21-86.66,261.92-62.49c142.01,52.23,190.83,249.96,120.82,443.18
	S689.25,1051.51,547,999.97"/>
<ellipse class="st3" cx="638.4" cy="630.57" rx="334.13" ry="408.73"/>
<ellipse class="st3" cx="639.4" cy="630.57" rx="334.13" ry="408.73"/>
<ellipse class="st3" cx="640.4" cy="630.57" rx="334.13" ry="408.73"/>
<ellipse class="st3" cx="641.4" cy="630.57" rx="334.13" ry="408.73"/>
<ellipse class="st3" cx="643.4" cy="630.57" rx="334.13" ry="408.73"/>
<ellipse class="st3" cx="644.4" cy="630.57" rx="334.13" ry="408.73"/>
<ellipse class="st3" cx="631.84" cy="635.25" rx="331.75" ry="399.3"/>
<g class="st5">
</g>
<g class="st5">
</g>
<g class="st5">
</g>
</svg>
