<?xml version="1.0" encoding="utf-8"?>
<!-- Generator: Adobe Illustrator 16.0.0, SVG Export Plug-In . SVG Version: 6.00 Build 0)  -->
<!DOCTYPE svg PUBLIC "-//W3C//DTD SVG 1.1//EN" "http://www.w3.org/Graphics/SVG/1.1/DTD/svg11.dtd">
<svg version="1.1" id="Livello_1" xmlns="http://www.w3.org/2000/svg" xmlns:xlink="http://www.w3.org/1999/xlink" x="0px" y="0px"
	 width="1000px" height="1000px" viewBox="0 0 1000 1000" enable-background="new 0 0 1000 1000" xml:space="preserve">
<path fill="#1D1D1B" d="M687.981,670.131l0.616-39.074c-0.034-0.005-0.063-0.014-0.097-0.017V307.712
	c0-39.292-9.92-74.001-29.749-104.126c-19.843-30.117-42.658-51.642-68.483-64.556c-25.82-12.909-54.085-19.364-84.761-19.364
	c-59.14,0-108.897,24.33-149.312,72.975c-50.903,60.625-76.344,138.842-76.344,234.639v188.608c0,41.917,4.294,78.027,12.91,108.342
	c5.98,21.704,16.277,46.586,30.875,74.655c14.59,28.061,27.124,47.908,37.609,59.497c16.84,19.453,37.693,34.711,62.587,45.753
	c24.886,11.027,52.29,16.56,82.237,16.56c57.996,0,104.973-11.427,140.896-34.242c22.451-14.23,33.679-27.324,33.679-39.298
	c0-5.978-2.25-11.222-6.736-15.716c-4.491-4.493-9.922-6.733-16.279-6.733c-5.991,0-12.164,3.001-18.525,8.979
	c-28.061,26.569-70.163,39.857-126.3,39.857c-56.89,0-102.078-24.801-135.56-74.383c-33.495-49.574-50.238-110.664-50.238-183.271
	v-185.8c0-49.023,6.453-90.098,19.365-123.215c12.906-33.116,28.346-61.471,46.306-85.044c10.472-13.469,23.76-24.882,39.858-34.242
	c23.575-13.472,48.641-20.209,75.221-20.209c38.165,0,69.968,13.111,95.422,39.3c25.445,26.194,38.17,59.875,38.17,101.035v102.433
	v0.097v215.454v46.326v6.094l-0.033-0.005l-0.719,20.386c0,35.083-28.308,63.626-63.102,63.626
	c-34.624,0-62.14-27.863-62.643-63.292l0.009-82.493c33.632-4.744,60.253-16.465,79.229-34.907
	c20.942-20.36,31.562-44.404,31.562-71.463c0-20.094-4.816-37.59-14.311-51.998c-9.475-14.408-23.826-25.895-42.459-34.04
	c-12.873-5.969-36.064-12.046-70.909-18.573c-40.09-7.5-56.116-14.364-62.604-18.867c-11.12-7.526-16.522-18.188-16.522-32.596
	c0-14.974,6.645-28.227,20.315-40.516c13.991-12.554,31.427-18.656,53.302-18.656c21.707,0,40.731,5.284,56.431,15.637
	c9.483,6.432,14.754,13.286,15.707,20.691c1.231,7.659,3.781,13.221,7.726,16.94c4.181,4.021,9.548,6.145,15.516,6.145
	c6.811,0,12.763-2.543,17.235-7.373c4.277-4.661,6.452-11.556,6.452-20.502v-40.124c0-9.047-2.105-15.749-6.492-20.541
	c-4.451-4.796-10.396-7.33-17.195-7.33c-6.265,0-11.903,2.338-16.29,6.744c-1.085,1.088-2.05,2.289-2.89,3.596
	c-8.978-5.325-17.158-9.299-24.422-11.864c-8.225-2.894-17.893-5.032-29.38-6.474v-25.163c0-9.21-2.017-15.97-6.187-20.677
	c-4.354-4.907-10.292-7.501-17.167-7.501c-6.941,0-12.898,2.612-17.186,7.501c-4.164,4.691-6.188,11.455-6.188,20.677v25.494
	c-27.339,4.742-49.932,16.201-67.257,34.138c-19.296,20.012-29.081,43.173-29.081,68.834c0,27.896,9.479,49.521,28.111,64.229
	c17.494,13.998,47.147,24.938,90.743,33.461c27.953,5.226,46.331,9.578,54.49,12.889c11.935,5.029,20.676,11.359,25.992,18.798
	c5.242,7.336,7.791,16.077,7.791,26.706c0,16.092-7.339,29.984-22.438,42.478c-15.423,12.775-37.283,19.254-64.978,19.254
	c-26.9,0-48.288-5.402-63.565-16.054c-14.307-9.989-22.354-19.621-23.244-27.397c-0.626-9.448-2.602-15.363-6.423-19.189
	c-4.628-4.616-10.48-7.054-16.931-7.054c-7,0-12.989,2.709-17.293,7.793c-4.08,4.772-6.063,11.443-6.063,20.397v52.657
	c0,9.107,2.121,15.819,6.462,20.503c7.651,8.292,20.469,9.806,30.198,3.221c4.076-2.796,6.881-6.229,8.318-10.155
	c0.2-0.543,0.39-1.148,0.564-1.864c18.738,12.08,40.372,19.571,64.6,22.37l-0.063,81.886c0,61.045,49.311,110.711,109.924,110.711
	c59.84,0,109.148-49.015,109.926-109.714l0.007-0.997c0-0.14-0.012-0.285-0.012-0.425h0.067V670.131z"/>
<rect x="468.133" y="250.598" fill="#1D1D1B" width="46.726" height="389.478"/>
</svg>
