<?xml version="1.0" encoding="UTF-8" standalone="no"?>
<svg
   xmlns:dc="http://purl.org/dc/elements/1.1/"
   xmlns:cc="http://creativecommons.org/ns#"
   xmlns:rdf="http://www.w3.org/1999/02/22-rdf-syntax-ns#"
   xmlns:svg="http://www.w3.org/2000/svg"
   xmlns="http://www.w3.org/2000/svg"
   id="svg8"
   version="1.1"
   viewBox="0 0 18.520833 18.520833"
   height="100"
   width="100">
  <defs
     id="defs2" />
  <metadata
     id="metadata5">
    <rdf:RDF>
      <cc:Work
         rdf:about="">
        <dc:format>image/svg+xml</dc:format>
        <dc:type
           rdf:resource="http://purl.org/dc/dcmitype/StillImage" />
        <dc:title></dc:title>
      </cc:Work>
    </rdf:RDF>
  </metadata>
  <g
     style="display:inline"
     transform="translate(0,-270.54167)"
     id="layer1">
    <path
       id="text817"
       transform="matrix(0.18520833,0,0,0.18520833,0,270.54167)"
       d="m 49.294922,10.46875 c -6.368886,0 -12.271397,1.293242 -17.708984,3.882812 -5.467629,2.589625 -10.048986,6.266823 -13.744141,11.029297 -2.253144,2.916986 -3.967037,6.086702 -5.138672,9.509766 -1.201677,3.42301 -1.802734,6.96388 -1.802734,10.625 0,0.555687 0.01694,1.101578 0.04101,1.640625 h 6.449947 c -0.02233,-0.481273 -7.28e-4,-0.962344 -7.28e-4,-1.460938 0,-3.184899 0.480063,-6.176679 1.441406,-8.974609 0.931301,-2.79793 2.358567,-5.388267 4.28125,-7.769531 3.12436,-3.899231 6.939025,-6.875892 11.445313,-8.929688 4.476245,-2.083599 9.359107,-3.123046 14.646484,-3.123046 3.695156,0 7.240032,0.490572 10.634766,1.472656 3.394739,0.952495 6.533941,2.380166 9.417968,4.285156 4.716581,3.036041 8.412208,7.023759 11.085938,11.964844 2.643688,4.91128 3.964844,10.239655 3.964844,15.984375 0,4.732724 -0.855969,9.169245 -2.56836,13.30664 -1.742427,4.137395 -4.250818,7.782351 -7.52539,10.9375 -3.154399,3.095595 -6.803434,5.449262 -10.949219,7.056641 -4.145785,1.637075 -8.578339,2.455078 -13.294922,2.455078 -3.875408,0 -7.675193,-0.655183 -11.400391,-1.964844 -3.755239,-1.27991 -7.193999,-3.126094 -10.318359,-5.537109 l -4.058594,4.955078 c 3.75524,2.887235 7.856532,5.091355 12.302735,6.609375 4.416162,1.547825 8.908237,2.320313 13.474609,2.320313 5.557754,0 10.799689,-0.980768 15.726563,-2.945313 4.926873,-1.93474 9.312841,-4.7637 13.158203,-8.484375 3.845367,-3.720675 6.776259,-8.020814 8.789062,-12.902344 2.012809,-4.911334 3.019532,-10.180975 3.019531,-15.80664 0,-5.417305 -1.023555,-10.580908 -3.066406,-15.492188 C 85.554805,30.201947 82.640752,25.886691 78.855469,22.166016 74.980065,18.38584 70.504822,15.498201 65.427734,13.503906 60.350652,11.479861 54.972845,10.46875 49.294922,10.46875 Z"
       style="font-style:normal;font-weight:normal;font-size:18.02653503px;line-height:1.25;font-family:sans-serif;letter-spacing:0px;word-spacing:0px;fill:#000000;fill-opacity:1;stroke:none;stroke-width:2.29657865" />
    <path
       id="text821"
       d="m 9.3509466,274.73675 c -1.0846369,0 -1.936819,0.25225 -2.5566116,0.75693 -0.6153655,0.50469 -0.9229574,1.19545 -0.9229574,2.07202 0,0.75703 0.2232433,1.34818 0.6703794,1.77318 0.4471359,0.425 1.1710956,0.73678 2.1716179,0.93601 l 0.8166298,0.15969 c 0.6817713,0.13723 1.1710253,0.34293 1.4676403,0.61741 0.301042,0.27447 0.451794,0.65534 0.451794,1.14233 0,0.55781 -0.207986,0.98715 -0.624132,1.28819 -0.416147,0.30104 -1.0072988,0.4514 -1.7731851,0.4514 -0.1478928,0 -0.4633086,-0.001 -0.4506014,-1e-4 l 0.00434,1.07202 c 0.1513764,0.0102 0.3008365,0.0174 0.4462606,0.0174 1.2440119,0 2.1870249,-0.24807 2.8289539,-0.7439 0.646354,-0.49583 0.969598,-1.22398 0.969598,-2.18466 0,-0.80573 -0.239291,-1.44763 -0.717416,-1.92576 -0.473699,-0.48255 -1.210623,-0.81915 -2.2111452,-1.00952 l -0.8103047,-0.16601 c -0.7348969,-0.13724 -1.235218,-0.31661 -1.5008434,-0.53796 -0.2611982,-0.22579 -0.3917134,-0.5578 -0.3917134,-0.99609 0,-0.52239 0.1969189,-0.92541 0.5909298,-1.20873 0.3984381,-0.28334 0.9628706,-0.42493 1.6933402,-0.42493 0.4205739,0 0.8567837,0.0599 1.3083457,0.17946 0.451564,0.11953 0.932043,0.30079 1.441158,0.54429 v -1.30796 c -0.504688,-0.16813 -0.998527,-0.29446 -1.481079,-0.37857 -0.482553,-0.0841 -0.9561548,-0.12609 -1.4209992,-0.12609 z"
       style="font-style:normal;font-weight:normal;font-size:12.44615746px;line-height:1.25;font-family:sans-serif;letter-spacing:0px;word-spacing:0px;fill:#000000;fill-opacity:1;stroke:none;stroke-width:0.34000048" />
    <path
       transform="matrix(0.18520833,0,0,0.18520833,0,270.54167)"
       id="path866"
       d="m 10.935547,47.044922 c 0.579782,16.734177 16.122577,30.345692 35.53125,31.050781 l 0.131859,-5.794975 C 30.719538,72.265984 17.608883,60.938552 17.390625,47.107422 Z"
       style="display:inline;opacity:1;fill:#000000;fill-opacity:1;stroke:none;stroke-width:9.44057846;stroke-linejoin:round;stroke-miterlimit:4;stroke-dasharray:none;stroke-opacity:1" />
  </g>
  <g
     style="display:inline;opacity:1"
     id="layer2" />
  <g
     style="display:inline"
     id="layer3" />
</svg>
